<?xml version="1.0" encoding="UTF-8"?>
<!DOCTYPE svg PUBLIC "-//W3C//DTD SVG 1.1//EN" "http://www.w3.org/Graphics/SVG/1.1/DTD/svg11.dtd">
<!-- Creator: CorelDRAW 2019 (64-Bit) -->
<svg xmlns="http://www.w3.org/2000/svg" xml:space="preserve" width="50mm" height="19.3236mm" version="1.1" style="shape-rendering:geometricPrecision; text-rendering:geometricPrecision; image-rendering:optimizeQuality; fill-rule:evenodd; clip-rule:evenodd"
viewBox="0 0 4985.78 1926.86"
 xmlns:xlink="http://www.w3.org/1999/xlink"
 xmlns:xodm="http://www.corel.com/coreldraw/odm/2003">
 <defs>
  <style type="text/css">
   <![CDATA[
    .fil1 {fill:#FEFEFE;fill-rule:nonzero}
    .fil0 {fill:#FEFEFE;fill-rule:nonzero}
    .fil2 {fill:#FEFEFE;fill-rule:nonzero}
   ]]>
  </style>
 </defs>
 <g id="Ebene_x0020_1">
  <metadata id="CorelCorpID_0Corel-Layer"/>
  <g id="_2775565683552">
   <g>
    <path class="fil0" d="M1591.24 1227.04l24.99 0 0 0 -0.92 36 -2.7 35.54 -4.44 35.03 -6.16 34.46 -7.82 33.86 -9.43 33.22 -11 32.53 -12.53 31.78 -14.01 31 -15.46 30.17 -16.85 29.31 -18.21 28.4 -19.51 27.43 -20.77 26.43 -22 25.4 -23.16 24.3 -24.3 23.16 -25.4 21.99 -26.43 20.78 -27.43 19.5 -28.39 18.21 -29.31 16.85 -30.17 15.46 -31 14.01 -31.79 12.54 -32.52 10.99 -33.22 9.43 -33.86 7.82 -34.46 6.16 -35.03 4.44 -35.53 2.7 -36 0.92 0 -24.99 34.74 -0.88 34.27 -2.6 33.77 -4.3 33.23 -5.92 32.65 -7.54 32.02 -9.09 31.34 -10.61 30.65 -12.09 29.88 -13.51 29.1 -14.9 28.25 -16.25 27.39 -17.55 26.45 -18.81 25.5 -20.04 24.48 -21.21 23.44 -22.35 22.35 -23.44 21.22 -24.48 20.03 -25.5 18.82 -26.45 17.55 -27.38 16.25 -28.27 14.9 -29.1 13.51 -29.88 12.08 -30.64 10.62 -31.35 9.09 -32.02 7.54 -32.65 5.92 -33.23 4.3 -33.77 2.6 -34.28 0.88 -34.74 0 0zm-674.83 -674.81l0 -24.99 0 0 36 0.92 35.53 2.7 35.03 4.44 34.46 6.16 33.86 7.82 33.22 9.43 32.52 10.99 31.79 12.54 31 14.01 30.17 15.46 29.3 16.85 28.4 18.2 27.43 19.51 26.43 20.77 25.4 22 24.3 23.16 23.16 24.3 22 25.39 20.77 26.43 19.51 27.44 18.21 28.38 16.85 29.32 15.46 30.17 14.01 31 12.52 31.78 11.01 32.52 9.43 33.22 7.82 33.86 6.16 34.46 4.44 35.03 2.7 35.53 0.92 36 -24.99 0 -0.88 -34.74 -2.6 -34.27 -4.3 -33.77 -5.92 -33.23 -7.54 -32.65 -9.09 -32.02 -10.61 -31.34 -12.09 -30.64 -13.51 -29.88 -14.9 -29.1 -16.25 -28.26 -17.55 -27.38 -18.82 -26.46 -20.03 -25.48 -21.22 -24.49 -22.35 -23.44 -23.44 -22.35 -24.48 -21.22 -25.5 -20.03 -26.45 -18.82 -27.38 -17.54 -28.26 -16.25 -29.1 -14.9 -29.88 -13.51 -30.65 -12.09 -31.34 -10.61 -32.02 -9.09 -32.65 -7.54 -33.23 -5.92 -33.77 -4.3 -34.27 -2.6 -34.74 -0.88 0 0zm-674.84 674.81l-24.99 0 0 0 0.92 -36 2.7 -35.53 4.44 -35.03 6.16 -34.46 7.82 -33.86 9.43 -33.22 11.01 -32.52 12.52 -31.78 14.01 -31 15.46 -30.17 16.85 -29.32 18.21 -28.38 19.51 -27.44 20.77 -26.43 22 -25.39 23.16 -24.3 24.3 -23.16 25.4 -22 26.43 -20.77 27.43 -19.51 28.4 -18.2 29.31 -16.85 30.17 -15.46 31 -14.01 31.78 -12.54 32.53 -10.99 33.22 -9.43 33.86 -7.82 34.46 -6.16 35.02 -4.44 35.54 -2.7 36 -0.92 0 24.99 -34.74 0.88 -34.28 2.6 -33.76 4.3 -33.23 5.92 -32.65 7.54 -32.02 9.09 -31.35 10.61 -30.64 12.09 -29.88 13.51 -29.1 14.9 -28.27 16.25 -27.38 17.54 -26.45 18.82 -25.5 20.03 -24.48 21.22 -23.44 22.35 -22.35 23.44 -21.22 24.49 -20.03 25.48 -18.82 26.46 -17.55 27.38 -16.25 28.26 -14.9 29.1 -13.51 29.88 -12.09 30.64 -10.61 31.34 -9.09 32.02 -7.54 32.65 -5.92 33.23 -4.3 33.77 -2.6 34.27 -0.88 34.74 0 0zm674.84 674.84l0 24.99 0 0 -36 -0.92 -35.54 -2.7 -35.02 -4.44 -34.46 -6.16 -33.86 -7.82 -33.22 -9.43 -32.53 -10.99 -31.78 -12.54 -31 -14.01 -30.17 -15.46 -29.31 -16.85 -28.4 -18.21 -27.43 -19.5 -26.43 -20.78 -25.4 -21.99 -24.3 -23.16 -23.16 -24.3 -22 -25.4 -20.77 -26.43 -19.51 -27.43 -18.21 -28.4 -16.85 -29.31 -15.46 -30.17 -14.01 -31 -12.53 -31.78 -11 -32.53 -9.43 -33.22 -7.82 -33.86 -6.16 -34.46 -4.44 -35.03 -2.7 -35.54 -0.92 -36 24.99 0 0.88 34.74 2.6 34.28 4.3 33.77 5.92 33.23 7.54 32.65 9.09 32.02 10.62 31.35 12.08 30.64 13.51 29.88 14.9 29.1 16.25 28.27 17.55 27.38 18.82 26.45 20.03 25.5 21.22 24.48 22.35 23.44 23.44 22.35 24.48 21.21 25.5 20.04 26.45 18.81 27.38 17.55 28.27 16.25 29.1 14.9 29.88 13.51 30.64 12.09 31.35 10.61 32.02 9.09 32.65 7.54 33.23 5.92 33.76 4.3 34.28 2.6 34.74 0.88 0 0z"/>
   </g>
   <path class="fil1" d="M1832.85 1227.02l0 -1221.89 -1832.85 0 0 1221.89 91.66 0c0,-455.51 369.25,-824.8 824.77,-824.8 455.52,0 824.77,369.29 824.77,824.8l91.66 0z"/>
   <path class="fil2" d="M2034.91 315.08l86.05 0 0 -111.31 55.65 -0.43c16.69,0 53.94,0 77.92,-13.27 11.99,-6.41 46.66,-29.96 46.66,-84.33 0,-40.25 -17.55,-68.07 -43.67,-83.91 -25.26,-15.83 -56.51,-15.83 -80.48,-15.83l-142.13 0 0 309.09zm86.05 -251.72l37.67 0c24.83,0 55.22,2.13 55.22,39.81 0,41.53 -33.82,41.53 -54.79,41.53l-38.1 0 0 -81.34z"/>
   <path class="fil2" d="M2333.73 315.08l44.09 0 33.39 -80.48 143.41 0 33.39 80.48 46.66 0 -125 -309.09 -45.81 0 -130.14 309.09zm151.12 -266.71l56.94 151.55 -116.88 0 59.94 -151.55zm208.06 266.71l42.38 0 0 -139.56 53.94 0c51.8,0 62.5,12.84 67.65,57.8 2.99,23.54 7.27,61.22 14.12,81.77l45.81 0c-11.99,-34.25 -14.99,-60.8 -19.27,-97.18 -4.28,-38.53 -17.55,-51.8 -47.09,-59.5 9.41,-2.57 23.11,-6.85 36.39,-20.12 13.7,-13.7 21.83,-32.97 21.83,-54.79 0,-24.84 -11.13,-48.38 -34.24,-62.93 -22.7,-14.56 -55.22,-14.56 -71.07,-14.56l-110.45 0 0 309.09zm41.52 -273.13l67.64 0c17.13,0 61.64,0 61.64,50.09 0,25.69 -14.98,36.82 -20.97,40.25 -11.56,6.85 -35.96,6.85 -40.67,6.85l-67.64 0 0 -97.18zm262 273.13l42.81 0 0 -309.09 -42.81 0 0 309.09zm122.43 -90.33c0,14.99 0.43,39.82 17.98,62.5 24.4,31.25 72.34,35.11 95.9,35.11 79.19,0 122,-41.53 122,-96.33 0,-12.84 -2.13,-42.81 -30.82,-61.64 -17.98,-12 -26.12,-13.7 -99.75,-32.54 -37.67,-8.99 -55.65,-18.41 -55.65,-45.81 0,-30.82 25.69,-50.09 68.49,-50.09 30.39,0 62.93,8.57 65.07,47.1l44.52 0c-0.86,-12.84 -1.72,-33.82 -18.85,-52.66 -24.83,-26.97 -66.35,-30.39 -86.9,-30.39 -58.21,0 -117.72,27.39 -117.72,90.32 0,20.55 6.85,43.68 32.11,60.8 15.84,10.7 36.82,15.83 83.91,27.39 43.24,10.71 71.06,17.56 71.06,52.23 0,15.42 -8.13,55.22 -72.34,55.22 -71.07,0 -73.64,-39.81 -74.49,-61.22l-44.52 0z"/>
   <polygon class="fil2" points="2032.34,828.8 2257.95,828.8 2257.95,768.01 2119.25,768.01 2119.25,519.71 2032.34,519.71 "/>
   <path class="fil2" d="M2307.61 676.39c0,84.77 34.25,159.68 139.56,159.68 110.02,0 142.98,-82.62 142.98,-164.82 0,-104.88 -53.94,-159.67 -139.56,-159.67 -28.68,0 -71.06,6.85 -103.17,41.52 -33.82,36.39 -39.82,88.19 -39.82,123.29zm44.95 -2.56c0,-63.36 20.12,-126.29 98.46,-126.29 70.64,0 93.75,53.08 93.75,123.29 0,20.98 -2.56,69.78 -27.82,100.6 -17.98,21.41 -43.24,28.26 -68.49,28.26 -24.41,0 -50.94,-6.42 -68.49,-28.26 -21.41,-26.54 -27.4,-63.78 -27.4,-97.6zm317.64 154.97l86.9 0c45.38,0 83.48,0 113.88,-25.26 23.55,-18.84 51.37,-59.93 51.37,-126.72 0,-42.38 -10.7,-84.76 -38.1,-116.87 -34.25,-40.25 -83.05,-40.25 -124.57,-40.25l-89.47 0 0 309.09zm42.81 -273.55l51.37 0c37.67,0 62.5,5.14 82.2,26.97 29.11,32.1 29.96,84.76 29.96,96.32 0,17.98 -1.29,68.49 -40.66,98.03 -20.55,15.42 -51.37,17.13 -80.91,17.13l-41.96 0 0 -238.45zm282.54 273.55l42.38 0 0 -139.56 53.95 0c51.79,0 62.5,12.84 67.64,57.8 3,23.54 7.28,61.22 14.13,81.77l45.8 0c-11.99,-34.25 -14.98,-60.79 -19.26,-97.18 -4.29,-38.52 -17.55,-51.79 -47.1,-59.5 9.42,-2.56 23.11,-6.85 36.39,-20.12 13.7,-13.7 21.84,-32.96 21.84,-54.79 0,-24.83 -11.13,-48.37 -34.25,-62.93 -22.69,-14.56 -55.22,-14.56 -71.06,-14.56l-110.45 0 0 309.09zm41.52 -273.12l67.65 0c17.12,0 61.64,0 61.64,50.09 0,25.69 -14.99,36.82 -20.98,40.24 -11.56,6.85 -35.96,6.85 -40.66,6.85l-67.65 0 0 -97.17zm249.59 120.72c0,84.77 34.25,159.68 139.56,159.68 110.02,0 142.98,-82.62 142.98,-164.82 0,-104.88 -53.94,-159.67 -139.56,-159.67 -28.68,0 -71.06,6.85 -103.17,41.52 -33.82,36.39 -39.82,88.19 -39.82,123.29zm44.95 -2.56c0,-63.36 20.12,-126.29 98.46,-126.29 70.64,0 93.75,53.08 93.75,123.29 0,20.98 -2.57,69.78 -27.83,100.6 -17.98,21.41 -43.24,28.26 -68.49,28.26 -24.4,0 -50.93,-6.42 -68.48,-28.26 -21.41,-26.54 -27.4,-63.78 -27.4,-97.6zm320.64 154.97l38.96 0 0 -262.42 157.12 262.42 54.79 0 0 -309.09 -39.39 0 0 255.58 -151.98 -255.58 -59.51 0 0 309.09z"/>
   <path class="fil2" d="M2034.48 1033.43l-0.43 175.95c0,50.52 0.43,141.27 146.41,141.27 38.96,0 94.18,-7.28 124.16,-44.09 19.26,-22.69 23.96,-59.93 23.96,-94.18l0 -178.94 -83.47 0 0 180.65c0,30.82 -7.28,74.92 -61.64,74.92 -20.98,0 -41.1,-8.14 -52.66,-25.26 -8.57,-12.84 -9.84,-29.96 -9.84,-46.66l0 -183.66 -86.48 0z"/>
   <path class="fil2" d="M2418.06 1342.52l38.96 0 0 -262.43 157.11 262.43 54.8 0 0 -309.09 -39.39 0 0 255.57 -151.98 -255.57 -59.51 0 0 309.09zm347.19 0l42.81 0 0 -309.09 -42.81 0 0 309.09zm375.44 -309.09l-43.24 0 -92.47 264.14 -87.77 -264.14 -47.51 0 110.03 309.09 47.09 0 113.88 -309.09zm58.22 309.09l197.35 0 0 -37.67 -154.54 0 0 -102.75 143.84 0 0 -35.96 -143.84 0 0 -96.33 151.12 0 0 -36.39 -193.93 0 0 309.09zm282.96 0l42.38 0 0 -139.56 53.95 0c51.79,0 62.5,12.84 67.64,57.8 3,23.54 7.28,61.22 14.13,81.77l45.8 0c-11.99,-34.25 -14.98,-60.8 -19.26,-97.18 -4.29,-38.53 -17.56,-51.8 -47.1,-59.5 9.42,-2.57 23.11,-6.85 36.39,-20.12 13.7,-13.7 21.84,-32.97 21.84,-54.79 0,-24.83 -11.13,-48.38 -34.25,-62.93 -22.69,-14.56 -55.22,-14.56 -71.06,-14.56l-110.45 0 0 309.09zm41.52 -273.13l67.65 0c17.12,0 61.64,0 61.64,50.09 0,25.69 -14.99,36.82 -20.98,40.25 -11.56,6.85 -35.96,6.85 -40.66,6.85l-67.65 0 0 -97.18zm248.3 182.8c0,14.99 0.43,39.82 17.98,62.5 24.4,31.25 72.35,35.11 95.9,35.11 79.19,0 122,-41.53 122,-96.33 0,-12.84 -2.13,-42.81 -30.82,-61.64 -17.98,-12 -26.11,-13.7 -99.75,-32.54 -37.67,-8.99 -55.65,-18.41 -55.65,-45.81 0,-30.82 25.69,-50.09 68.49,-50.09 30.4,0 62.93,8.57 65.07,47.1l44.52 0c-0.86,-12.84 -1.72,-33.82 -18.84,-52.66 -24.83,-26.97 -66.36,-30.39 -86.91,-30.39 -58.21,0 -117.72,27.39 -117.72,90.32 0,20.55 6.85,43.68 32.11,60.8 15.84,10.7 36.82,15.83 83.91,27.39 43.24,10.71 71.07,17.56 71.07,52.23 0,15.42 -8.14,55.22 -72.35,55.22 -71.06,0 -73.63,-39.81 -74.49,-61.22l-44.52 0zm316.37 90.33l42.81 0 0 -309.09 -42.81 0 0 309.09zm253.43 0l0 -272.7 103.6 0 0 -36.39 -249.58 0 0 36.39 103.59 0 0 272.7 42.38 0zm95.46 0l44.1 0 33.38 -80.48 143.42 0 33.38 80.48 46.67 0 -125 -309.09 -45.81 0 -130.15 309.09zm151.12 -266.71l56.95 151.55 -116.88 0 59.93 -151.55zm-61.22 -74.49l39.39 0 0 -43.67 -39.39 0 0 43.67zm80.91 0l39.82 0 0 -43.67 -39.82 0 0 43.67zm274.42 341.2l0 -272.7 103.59 0 0 -36.39 -249.58 0 0 36.39 103.59 0 0 272.7 42.39 0z"/>
   <path class="fil2" d="M2021.63 1757.77c0.43,13.26 0.86,43.67 23.55,68.49 28.25,31.68 80.05,36.82 112.16,36.82 77.48,0 136.56,-30.82 136.56,-99.75 0,-65.5 -48.8,-78.35 -89.89,-89.05l-57.8 -14.98c-12.41,-3.43 -31.25,-8.99 -31.25,-31.69 0,-18.41 15.83,-32.53 40.66,-32.53 41.1,0 40.67,33.38 40.67,42.81l86.9 0c-0.43,-32.97 -5.56,-98.47 -126.29,-98.47 -92.47,0 -130.14,46.67 -130.14,96.75 0,64.65 55.22,79.19 76.63,84.76l75.76 19.69c20.55,5.56 26.54,15.42 26.54,29.97 0,35.1 -38.53,35.1 -45.81,35.1 -50.94,0 -51.79,-35.53 -52.22,-47.94l-86.05 0z"/>
   <path class="fil2" d="M2333.73 1856.23l44.09 0 33.39 -80.48 143.41 0 33.39 80.48 46.66 0 -125 -309.09 -45.81 0 -130.14 309.09zm151.12 -266.71l56.94 151.55 -116.88 0 59.94 -151.55zm211.05 266.71l186.23 0 0 -38.1 -143.85 0 0 -270.99 -42.38 0 0 309.09zm230.32 0l232.45 0 0 -37.67 -183.22 0 180.23 -229.04 0 -42.38 -224.75 0 0 37.67 173.8 0 -178.51 228.61 0 42.81zm304.36 0l112.6 0c24.4,0 48.37,0 69.77,-14.13 10.28,-6.85 37.24,-28.25 37.24,-70.21 0,-59.07 -43.67,-71.91 -61.64,-77.05 14.99,-5.56 52.23,-18.84 52.23,-69.78 0,-24.4 -8.57,-42.38 -21.83,-55.22 -19.28,-18.84 -40.25,-22.7 -77.92,-22.7l-110.45 0 0 309.09zm41.53 -273.98l61.64 0c23.54,0 62.5,0 62.5,46.66 0,48.8 -49.66,48.8 -64.22,48.8l-59.93 0 0 -95.46zm0 132.28l74.92 0c37.67,0 59.08,22.69 59.08,53.51 0,35.53 -26.97,53.51 -60.8,53.51l-73.2 0 0 -107.01zm260.28 -167.39l0 188.36c0,46.24 8.57,64.22 17.99,77.92 28.68,41.09 80.05,49.23 109.16,49.23 22.26,0 69.35,-4.71 99.75,-42.81 24.83,-30.82 25.26,-65.5 25.26,-82.2l0 -190.51 -41.52 0 0 189.65c0,22.26 0,87.76 -83.48,87.76 -21.4,0 -51.37,-4.71 -70.63,-30.39 -6.42,-8.99 -13.7,-22.7 -13.7,-55.65l0 -191.36 -42.82 0zm347.19 309.09l42.38 0 0 -139.56 53.94 0c51.8,0 62.5,12.84 67.65,57.8 2.99,23.54 7.27,61.22 14.12,81.77l45.81 0c-11.99,-34.25 -14.99,-60.79 -19.27,-97.18 -4.28,-38.53 -17.55,-51.79 -47.09,-59.5 9.41,-2.56 23.11,-6.85 36.39,-20.12 13.7,-13.7 21.83,-32.96 21.83,-54.79 0,-24.83 -11.13,-48.37 -34.24,-62.93 -22.7,-14.56 -55.22,-14.56 -71.07,-14.56l-110.45 0 0 309.09zm41.52 -273.12l67.64 0c17.13,0 61.64,0 61.64,50.09 0,25.69 -14.98,36.81 -20.97,40.24 -11.56,6.85 -35.96,6.85 -40.67,6.85l-67.64 0 0 -97.17zm518 41.09c-0.86,-11.99 -2.14,-29.96 -20.55,-49.23 -29.54,-29.96 -66.78,-32.97 -91.19,-32.97 -15.41,0 -55.65,1.29 -86.04,21.83 -58.64,39.39 -66.35,112.17 -66.35,142.99 0,43.67 12.84,86.9 43.24,117.72 21.83,22.26 55.22,38.53 112.16,38.53 52.66,0 92.05,-12.84 110.03,-18.84l0 -152.41 -113.45 0 0 35.54 70.64 0 0 91.61c-9.85,2.99 -32.12,9.84 -67.22,9.84 -30.82,0 -62.07,-7.28 -82.2,-30.39 -22.69,-26.97 -28.25,-71.06 -28.25,-97.17 0,-29.12 5.99,-69.35 32.96,-99.33 16.27,-18.4 40.67,-26.11 69.78,-26.11 41.96,0 65.07,19.69 69.78,48.37l46.67 0z"/>
   <path class="fil2" d="M1477.07 1204.19l-0.08 -0.05c0.08,-5.79 -0.52,-14.09 -1.39,-21.74 -1.33,-0.79 -2.94,-1.21 -4.34,-1.89 -8.67,7.35 -15.6,15.7 -18.94,26.8 -4.24,14.15 -2.28,31.31 -2.28,31.31 0,0 -12.7,-12.9 -8.34,-38.11 1.83,-10.6 5.68,-19.15 10,-26.18 -12.07,-2.07 -24.55,-1.95 -34.44,0.45 -1.4,0.35 -2.65,1.01 -4.03,1.42 -5.02,10.69 -5,20.9 -1.65,29.75 3.16,8.36 10.78,18.87 10.78,18.87 0,0 -17.74,-4.25 -24.75,-20.49 -2.87,-6.66 -3.58,-13.26 -3.38,-19.33 -10.03,6.48 -18.4,15.11 -23.04,26.14 -13.16,31.26 -4.24,56.96 2.64,70.15 4.57,6.61 13.39,16.74 27.8,23.26 16.1,7.29 29.74,8.08 29.74,8.08 0,0 -8.88,5.43 -29.81,4.09 -11.21,-0.72 -20.72,-6.11 -27.02,-10.75 -9.42,19.87 -25.88,24.81 -39.88,26.11 -39.54,3.66 -86.63,-27.81 -127.55,-60.87 0.03,-0.06 0.04,-0.15 0.06,-0.22 -25.49,-19.66 -48.19,-41.31 -62.26,-56.37 -12.46,-13.36 -26.54,-33.63 -26.54,-33.63l27.97 -32.22c0,0 6.59,34.52 41.78,72.68 9.91,10.75 17.98,19.13 24.77,25.26 5.09,-29.04 5.85,-60.5 6,-60.58 18.41,-11.42 66.55,-40.12 102.4,-56.15 54.02,-24.18 104.62,-27.11 142.21,-24.76 -6.04,-24.5 -10.91,-49.04 -31.54,-99 -13.77,-33.36 -33.8,-66.72 -48.67,-88.82l0.03 0c0,0 -0.24,-0.33 -0.45,-0.64 -0.86,-1.28 -1.77,-2.67 -2.61,-3.88 -0.03,0 -0.09,0 -0.13,0 -0.63,-0.91 -1.19,-1.71 -1.41,-1.97 -5.06,-6.84 -31.1,-40.69 -46.78,-58.25 -4.48,-5.04 -9.88,-10.73 -15.34,-16.32 -0.01,0 -0.11,-0.12 -0.11,-0.12l-0.04 -0.01c-12.06,-12.38 -24.24,-24.13 -26.73,-26.53 -2.25,-2.23 -6.66,-6.23 -15.53,-13.24 -1.32,0.35 -2.56,1.14 -3.89,1.6 -0.89,10.33 0.06,20.28 4.8,29.87 6.54,13.24 19.68,24.47 19.68,24.47 0,0 -18.09,-0.78 -32.1,-22.21 -5.15,-7.88 -8.14,-15.68 -9.91,-22.94 -10.17,7.17 -19.03,16.31 -24.29,25.39 -0.6,1.03 -0.89,2.15 -1.44,3.21 3.9,8.91 9.96,15.23 17.33,18.86 8.01,3.96 20.74,6.45 20.74,6.45 0,0 -15.86,8.99 -32.06,1.89 -4.99,-2.18 -9.04,-5.21 -12.49,-8.48 -2.42,12.13 -2.01,24.67 2.17,36.47 7.47,21 24.48,36.73 47.23,44.84 8.02,1.54 20.42,2.42 34.36,-2.28 16.75,-5.65 27.26,-14.37 27.26,-14.37 0,0 -2.8,10.05 -19.03,23.33 -6.24,5.11 -13.5,7.84 -20,9.33 9.67,22.03 1.95,38.55 -7.96,49.33 -21.4,23.15 -64.37,38.1 -115.27,40.3 -11.93,-17.73 -22.75,-30.03 -27.96,-35.57 -0.4,-0.42 -2.71,-2.89 -5.75,-5.95 -2.51,-3.25 -16.39,-15.48 -31.05,-28.05 -4.48,6.41 -11.55,15.59 -21.27,25.31 -18.14,18.15 -50.26,27.78 -50.26,27.78 0,0 -37.18,-6.23 -67.53,-28.45 -12.52,-9.17 -28.08,-24.46 -34.23,-36.55 -20.5,-28.74 -11.04,-72.29 -11.04,-72.29 0,0 -10.01,-1.07 -22.21,-6.81 -17.73,-8.38 -33.01,-25.59 -38.04,-40.98 -5.75,-17.6 -5.41,-59.37 40.79,-74.75 21.07,-5.5 30.58,4.05 30.58,4.05 0,0 -32.53,1.42 -44.8,22.49 -12.27,21.09 -6.09,39.97 6.1,50.11 14.68,13.09 50.49,17.97 50.49,17.97 0,0 -11.15,39.44 0.18,63.33 6.14,12.99 27.61,36.62 51.35,47.6 15.07,7.01 28.35,12.6 42.21,15.24 22.04,-10.23 39.79,-35.85 40.58,-37.01 -0.06,-0.06 -0.15,-0.13 -0.22,-0.18 0.54,-0.68 1.12,-1.27 1.64,-1.95 12.74,-16.78 19.27,-38.57 19.25,-38.59l-0.18 0.08c0.06,-0.25 0.12,-0.41 0.12,-0.41 0,0 -43.09,-23.52 -27.37,-52.97 11.01,-20.65 39.67,-8.35 52.49,-0.88l15.06 8.76 39.85 -81.72c0,0 -54.96,-24.01 -81.89,-34.42l16.11 -44.78 -18.5 -6.18c-92.85,-31.03 -178.27,-35.91 -262.4,-21.88 -79.76,13.3 -146.59,57.53 -183.36,121.31 -37.19,64.56 -41.92,153.75 -12.01,221.38 21.38,48.35 50.64,78.74 56.02,141.84 4.12,48.31 -18.77,87.33 -35.33,122.47 11.15,1.06 24.28,3.15 24.28,3.15 17.14,2.21 50.09,3.72 77.89,4.68 19.7,-19.17 46.19,-53.01 52.58,-100.9 5.54,-52.08 -13.37,-94.12 -29.04,-122.07 -14.99,-26.72 -43.75,-66.46 -59.13,-96.73 -26.57,-52.19 -32.01,-101.23 -18.2,-146.21 8.53,-27.79 26.23,-50.98 47.88,-68.14 19.1,-14.04 29.17,-15.19 46.7,-20.53 -30.4,18.04 -54.72,44.9 -65.55,80.17 -13.81,44.98 -9.08,94.01 17.49,146.21 15.39,30.28 46.27,67.19 61.26,93.89 15.66,27.96 36.04,69.98 33.3,118.53 -1.18,32.44 -16.25,74.3 -35.17,103 -4.58,6.93 -7.42,11 -9.61,13.97 0.18,0 0.45,0.02 0.63,0.02 -15.09,20.61 -53.59,59.12 -104.9,78.36 -54.5,20.4 -115,21.93 -140.41,4.42 -1.28,-0.9 -2.47,-1.81 -3.6,-2.74 33.08,-3.81 67.22,-22.35 79.13,-59.9 13.32,-42.01 -2.27,-69.88 -28.04,-93.67 38.99,-51.9 41.55,-117.95 5.54,-158.89 -4.7,-5.35 -9.83,-10.05 -15.24,-14.08 12.19,-55.26 3.55,-125.69 -29.34,-149.73 -17.84,-13.02 -38.07,-17.07 -58.49,-11.76 -51.11,13.36 -84.17,74.43 -99.6,108.34 -15.45,33.87 -28.31,68.64 -42.64,135.92 -12.07,56.74 -14.1,167.17 9.73,245.04 3.59,11.68 11.2,10.9 11.53,4.49 1.29,-27.74 5.25,-50.34 10.18,-68.53 5.79,-21.37 12.97,-36.66 18.87,-46.97 18.71,-32.72 36.26,-102.71 13.43,-160.42 -8.47,-21.44 -4.88,-54.62 8,-90.03 18.94,-40.82 50.64,-84.83 79.73,-92.44 9.84,-2.58 18.65,-0.71 27.68,5.89 12.71,9.3 26.41,54.56 16.9,104.72 -6.63,-1.36 -13.41,-1.85 -20.19,-1.45 -23.11,1.36 -44.01,13.3 -57.4,32.71 -20.58,29.95 -20.4,75.44 12.75,115.58 -28.77,40.91 -50.54,78.89 -43.98,126.21 4.35,31.23 25.73,55.04 56.57,64.85 4.75,15 14.16,27.65 27.69,36.99 17.96,12.35 44.29,18.52 74.66,18.52 16.93,0 35.12,-1.98 53.78,-5.84 -4.8,22.2 -23.07,44.78 -37.14,53.23 -32.1,19.27 -76.69,15.9 -118.1,-23.73 0,0 -8.81,-8.67 -14.63,-14.04 -23.97,26.19 -44.78,74.8 -44.79,109.42l20.24 29.03c86.94,108.61 178.69,158.64 255.31,186.06 0,-0.02 0.01,-0.03 0.02,-0.04 1.68,0.6 33.42,12.07 60.64,19.28 32.56,8.64 66.41,10.39 66.41,10.39l0.15 -0.42c1.18,-1.18 2.05,-2.75 3.14,-4.06 -7.58,-11.95 -16.45,-21.64 -29.58,-26.58 -13.82,-5.24 -31.08,-4.48 -31.08,-4.48 0,0 13.76,-11.76 38.6,-5.65 15.03,3.69 25.77,11.12 33.28,18.19 4.45,-10.53 7.05,-21.76 7.08,-31.39 0.01,-0.93 -0.24,-1.78 -0.28,-2.69 -1.33,-1.29 -2.66,-2.6 -4.25,-4.02 -13.5,-11.96 -27.29,-14.06 -39.15,-10.5 -8.55,2.56 -19.56,9.42 -19.56,9.42 0,0 5.47,-17.38 22.18,-23.24 13.62,-4.78 26.67,-1.55 34.92,1.75 -4.1,-9.23 -10.18,-17.52 -17.98,-24.17 -13.28,-11.4 -36.3,-21.04 -55.22,-18.9 -18.95,2.13 -26.85,5.44 -37.75,12.44 -11.05,7.11 -17.36,13.16 -24.22,25.88 -8.4,15.57 -10.13,29.11 -10.13,29.11 0,0 -4.82,-9.25 -2,-30.03 2.25,-16.74 14.77,-29.04 18.71,-32.57 -21.59,-15.77 -43.59,-48.3 -45.01,-70.26 44.55,11.79 89.2,11.13 125.33,-1.96 3.69,-1.75 7.76,-3.75 11.3,-6.2 28.37,-19.57 36.28,-34.49 45.36,-54.62 14.87,-32.97 22.06,-85.7 10.27,-112.23 -11.34,-25.49 -54.53,-52.4 -54.53,-52.4l31.16 -7.79c0,0 17.03,10.27 28.68,22.67 11.65,12.37 24.63,24.77 24.63,24.77 0,0 21.04,26.56 43.7,32.93 21.74,6.12 28.72,5.09 46.74,3.9 6.16,-0.41 14.06,-1.8 23.18,-3.76 0,-0.04 -0.02,-0.05 -0.03,-0.08 20.19,-6.15 35.34,-10.96 52.95,-20.09 -18.68,-9.49 -35.66,-23.71 -49.54,-39.44 -26.56,-30.09 -35.76,-84.27 -35.76,-84.27l31.86 -14.07c0,0 -0.36,43.46 21.95,77.13 11.87,17.93 25.42,32.8 50.63,48.11 17.09,10.38 38.17,17.94 52.07,22.29 11.15,3.12 22.2,5.79 30.33,7.32 26.79,5.03 44.43,6.5 85.35,7.41 10.71,0.22 31.28,2.07 43.96,7.03 13.27,5.15 28.71,14.56 41.38,26.8 11.58,11.17 28.72,36.69 33.74,54.47 8.72,-11.42 29.27,-45.41 51.34,-98 15.38,-36.61 28.77,-104.97 28.47,-105.34 2.55,-11.21 6.37,-43.67 6.88,-61.34 0.52,-18.27 1.46,-61.88 1.46,-61.88zm-954.54 -4.03c0.98,0.76 1.97,1.52 3.01,2.24 5.24,3.83 10.41,7.52 15.47,11.1 4.48,3.2 8.69,6.22 12.65,9.15 -19.08,27.29 -41.59,65.81 -47.4,102.08 -8.68,-5.56 -16.28,-14.51 -18.29,-28.88 -4.56,-32.82 11.3,-62.08 34.56,-95.7zm27.63 -142.14c-0.64,2.01 -1.25,4.02 -1.85,5.98 -10.07,32.53 -17.49,53.82 -31.69,75.91 -16.01,-24.22 -16.03,-48.72 -4.92,-64.9 7.19,-10.46 17.88,-16.62 30.1,-17.35 0.81,-0.06 1.61,-0.08 2.41,-0.08 1.97,0 3.97,0.15 5.94,0.44zm25.54 135.38c-4.42,-3.21 -8.94,-6.44 -13.46,-9.66 -4.96,-3.53 -10,-7.14 -15.14,-10.9 -1.14,-0.83 -2.23,-1.64 -3.33,-2.45 21.16,-30.45 29.78,-57.34 39.3,-88 23.5,27.74 20.3,73.53 -7.37,111.01zm-34.64 141.91c2.99,-26.61 20.58,-60.33 41.38,-90.45 17.2,16.66 22.81,31.73 15.6,54.5 -10.54,33.23 -30.08,35.43 -56.98,35.95zm436.32 -562.69c0,0 34.65,3.05 55.68,12.71 -30.85,9.26 -44.08,25.86 -61.58,28.3 -2.59,-13.23 5.9,-41.01 5.9,-41.01zm233.8 174.11c-17.28,8.54 -36.43,5.49 -43.41,-2.32 -7,-7.83 -8.53,-12.52 -12.58,-20.72 -4.33,-8.22 -8.8,-17.13 -14.47,-25.7 -5.79,-8.45 -12.85,-16.73 -21.72,-22.47 -8.78,-5.84 -21.26,-10.39 -28.25,-10.2 -6.97,0.19 -4.1,2.82 -1.23,4.2 2.88,1.36 15.18,9.74 20.39,16.23 5.29,6.47 8.74,14.04 11.31,22.12 5.73,16.22 6.35,34.24 17.35,55.76 1.42,2.7 2.96,5.38 5.13,8.1l3.02 4.03 3.32 3.54c4.39,4.81 9.93,8.94 16.13,12.37 12.49,6.86 29.13,7.4 42.3,1.5 13.42,-5.62 22.75,-16.66 27.37,-27.86 4.61,-11.37 4.89,-26.65 1.42,-33.92 -3.45,-7.25 -12.14,8.28 -26.09,15.35zm-394.2 688.4c77.53,14.11 116.8,67.49 136.23,152.66 133.81,-8.58 230.06,-59.4 295.5,-107.46l0.02 0.13c0,0 32.98,-26.11 54.87,-46.18 7.73,-7.1 15.38,-15.35 21.82,-22.71 0,0.12 0.05,0.28 0.05,0.4 0,0 10.09,-11.08 16.51,-19 -0.23,-1.23 -0.87,-2.4 -1.2,-3.61 -12.78,-1.57 -24.91,-0.95 -36.32,5.19 -13.01,7.02 -23.75,20.52 -23.75,20.52 0,0 0.14,-18.09 21.06,-32.85 10.47,-7.38 21.04,-10.95 30.21,-12.53 -6.4,-10.15 -14.61,-19.15 -22.96,-24.8 -1,-0.69 -2.14,-1.06 -3.17,-1.69 -15.07,3.2 -24.59,11.33 -29.22,21.58 -3.67,8.15 -5.71,20.96 -5.71,20.96 0,0 -9.55,-15.54 -3,-31.99 3.47,-8.77 9.38,-15.06 15.27,-19.55 -10.56,-2.14 -21.49,-2.01 -32.02,0.91 -24.73,6.9 -50.01,25.45 -55.53,66.84 -0.17,7.25 0.69,16.06 4.25,25.51 6.22,16.53 15.32,26.73 15.32,26.73 0,0 -10.13,-2.43 -23.98,-18.19 -4.75,-5.4 -7.63,-11.72 -9.43,-17.61 -24.14,12.73 -64.6,20.63 -85.5,23.91 -26.07,4.09 -45.01,5.62 -57.55,-1.79 -13.13,-7.8 -17.79,-13.83 -24.17,-26.29 -8.08,-15.84 -4.95,-42 -1.44,-52.65 6.61,-19.9 38.14,-49.07 26.53,-88.36 -0.97,-5.16 -1.85,-9.05 -2.75,-12.56 -3.91,1.76 -7.73,3.37 -11.31,4.6 -44.26,15.23 -96.66,-4.24 -96.66,-4.24 0,0 -3.47,43.67 -20.53,70.09 -21.24,32.93 -37.58,46.39 -56.09,59.99 -11.57,8.51 -22.39,13.76 -31.31,17.13 -0.09,8.85 -1.19,18.52 -4.04,26.9z"/>
  </g>
 </g>
</svg>
